<svg width="113" height="30" viewBox="0 0 113 30" fill="none" xmlns="http://www.w3.org/2000/svg">
<g clip-path="url(#clip0_2891_2260)">
<path fill-rule="evenodd" clip-rule="evenodd" d="M72.8953 0H68.1224V9.71902C66.2313 8.38891 63.9082 7.60507 61.3971 7.60507C55.0468 7.60507 49.8988 12.6178 49.8988 18.8014C49.8988 24.985 55.0468 29.9978 61.3971 29.9978C63.9082 29.9978 66.2313 29.2139 68.1224 27.8838V29.9978H72.8953V18.8014V0ZM68.1224 18.8014C68.1224 15.1846 65.1114 12.2526 61.3971 12.2526C57.6827 12.2526 54.6717 15.1846 54.6717 18.8014C54.6717 22.4182 57.6827 25.3502 61.3971 25.3502C65.1114 25.3502 68.1224 22.4182 68.1224 18.8014ZM25.5996 7.60503V19.4351C25.5997 25.3865 30.7701 29.8856 36.8809 29.9977C39.4282 30.0445 41.8499 29.3031 43.8232 27.9957V29.9977H48.596V19.4351V7.60503H43.8232V19.4351C43.8233 22.943 40.4813 25.4677 36.8809 25.3502C33.3477 25.2349 30.3724 22.6662 30.3724 19.2239V7.60503H25.5996ZM100.229 18.8014C100.229 22.4182 97.218 25.3502 93.5036 25.3502C89.7893 25.3502 86.7783 22.4182 86.7783 18.8014C86.7783 15.1846 89.7893 12.2526 93.5036 12.2526C97.218 12.2526 100.229 15.1846 100.229 18.8014ZM105.002 18.8014C105.002 24.985 99.854 29.9977 93.5036 29.9977C87.1534 29.9977 82.0054 24.985 82.0054 18.8014C82.0054 12.6178 87.1534 7.60503 93.5036 7.60503C99.854 7.60503 105.002 12.6178 105.002 18.8014ZM81.1367 2.74627C81.1367 4.263 79.874 5.49255 78.3163 5.49255C76.7587 5.49255 75.496 4.263 75.496 2.74627C75.496 1.22955 76.7587 0 78.3163 0C79.874 0 81.1367 1.22955 81.1367 2.74627ZM75.9301 7.60503H80.7029V29.9977H75.9301V7.60503ZM18.2236 18.8014C18.2236 22.4182 15.2126 25.3502 11.4982 25.3502C7.7839 25.3502 4.77285 22.4182 4.77285 18.8014C4.77285 15.1846 7.7839 12.2526 11.4982 12.2526C15.2126 12.2526 18.2236 15.1846 18.2236 18.8014ZM22.9944 18.5901C22.8788 12.504 17.7761 7.60503 11.4982 7.60503C5.14793 7.60503 0 12.6178 0 18.8014C0 24.985 5.14793 29.9977 11.4982 29.9977C14.0094 29.9977 16.3325 29.2139 18.2236 27.8838V29.9977H22.9965V18.8014V18.5901H22.9944ZM110.334 30.0002C111.807 30.0002 113 28.8378 113 27.404C113 25.9703 111.807 24.8079 110.334 24.8079C108.862 24.8079 107.668 25.9703 107.668 27.404C107.668 28.8378 108.862 30.0002 110.334 30.0002Z" fill="white"/>
</g>
<defs>
<clipPath id="clip0_2891_2260">
<rect width="113" height="30" fill="white"/>
</clipPath>
</defs>
</svg>
