<svg viewBox="256 256 2400 600" fill="none" xmlns="http://www.w3.org/2000/svg">
<path d="M385.928 807.422C359.755 807.422 338.766 799.027 322.964 782.237C307.655 764.952 300 739.519 300 705.938V649.641C300 617.541 308.642 593.343 325.927 577.046C343.211 560.749 365.187 552.601 391.854 552.601H394.817C409.139 552.601 421.978 555.317 433.337 560.749C445.189 566.182 453.831 573.589 459.263 582.972V504.452C459.263 474.821 447.905 460.006 425.188 460.006H422.225C410.867 460.006 402.225 463.957 396.299 471.858C390.867 479.76 388.15 490.624 388.15 504.452V522.23H304.445V491.859C304.445 461.241 314.321 436.549 334.075 417.783C354.322 398.523 382.965 388.893 420.003 388.893H427.411C467.412 388.893 496.795 398.029 515.561 416.301C534.327 434.079 543.71 460.994 543.71 497.044V803.719H463.708V766.681C445.436 793.842 420.991 807.422 390.373 807.422H385.928ZM381.484 696.308C381.484 709.642 384.694 720.507 391.113 728.902C397.533 736.803 406.669 740.754 418.522 740.754H422.225C434.078 740.754 443.214 736.803 449.634 728.902C456.053 720.507 459.263 709.642 459.263 696.308V659.27C459.263 645.937 456.053 635.319 449.634 627.418C443.214 619.022 434.078 614.825 422.225 614.825H418.522C406.176 614.825 396.793 618.775 390.373 626.677C384.447 634.578 381.484 645.443 381.484 659.27V696.308Z" fill="white"/>
<path d="M694.964 811.126C653.481 811.126 622.863 800.755 603.11 780.014C583.356 759.273 573.479 727.914 573.479 685.938V396.301H657.926V688.901C657.926 703.716 661.136 715.568 667.556 724.457C673.976 732.853 683.359 737.05 695.705 737.05H700.149C712.495 737.05 721.878 732.853 728.298 724.457C734.718 715.568 737.928 703.716 737.928 688.901V396.301H822.375V685.938C822.375 727.914 812.498 759.273 792.744 780.014C772.991 800.755 742.373 811.126 700.89 811.126H694.964Z" fill="white"/>
<path d="M943.842 811.126C915.693 811.126 892.976 801.99 875.692 783.718C858.901 764.952 850.506 737.05 850.506 700.012V500.007C850.506 462.969 858.901 435.314 875.692 417.042C892.976 398.276 915.693 388.893 943.842 388.893H947.546C962.855 388.893 976.435 392.844 988.288 400.745C1000.14 408.153 1009.03 418.03 1014.95 430.376V300.002H1099.4V803.719H1016.44V772.607C1008.53 784.459 998.658 793.842 986.806 800.755C975.448 807.669 962.361 811.126 947.546 811.126H943.842ZM934.953 688.901C934.953 703.716 938.163 715.568 944.583 724.457C951.003 732.853 960.386 737.05 972.732 737.05H976.435C988.781 737.05 998.164 732.853 1004.58 724.457C1011 715.568 1014.21 703.716 1014.21 688.901V511.118C1014.21 496.303 1011 484.698 1004.58 476.303C998.164 467.414 988.781 462.969 976.435 462.969H972.732C960.386 462.969 951.003 467.414 944.583 476.303C938.163 484.698 934.953 496.303 934.953 511.118V688.901Z" fill="white"/>
<path d="M1133.46 396.301H1217.91V803.719H1133.46V396.301ZM1126.79 332.595C1126.79 318.274 1131.24 306.669 1140.13 297.78C1149.51 288.397 1161.36 283.705 1175.68 283.705C1190 283.705 1201.61 288.397 1210.5 297.78C1219.88 306.669 1224.57 318.274 1224.57 332.595C1224.57 346.917 1219.88 358.769 1210.5 368.152C1201.61 377.041 1190 381.485 1175.68 381.485C1161.36 381.485 1149.51 377.041 1140.13 368.152C1131.24 358.769 1126.79 346.917 1126.79 332.595Z" fill="white"/>
<path d="M1372.06 811.126C1290.09 811.126 1249.1 770.137 1249.1 688.16V511.859C1249.1 429.882 1289.84 388.893 1371.32 388.893H1377.25C1458.73 388.893 1499.48 429.882 1499.48 511.859V688.16C1499.48 770.137 1458.49 811.126 1376.51 811.126H1372.06ZM1333.55 688.901C1333.55 703.716 1337 715.568 1343.92 724.457C1350.83 732.853 1360.46 737.05 1372.81 737.05H1375.77C1388.11 737.05 1397.74 732.853 1404.66 724.457C1411.57 715.568 1415.03 703.716 1415.03 688.901V511.118C1415.03 496.303 1411.57 484.698 1404.66 476.303C1397.74 467.414 1388.11 462.969 1375.77 462.969H1372.81C1360.46 462.969 1350.83 467.414 1343.92 476.303C1337 484.698 1333.55 496.303 1333.55 511.118V688.901Z" fill="white"/>
<path d="M1573.62 805.941C1558.31 805.941 1545.23 800.509 1534.36 789.644C1523.5 778.78 1518.06 765.693 1518.06 750.384C1518.06 734.581 1523.5 721.494 1534.36 711.124C1545.23 700.259 1558.31 694.827 1573.62 694.827C1589.42 694.827 1602.51 700.259 1612.88 711.124C1623.75 721.494 1629.18 734.581 1629.18 750.384C1629.18 765.693 1623.75 778.78 1612.88 789.644C1602.51 800.509 1589.42 805.941 1573.62 805.941Z" fill="white"/>
<path d="M1769.21 811.126C1728.72 811.126 1698.1 800.509 1677.36 779.273C1656.61 758.038 1646.24 727.667 1646.24 688.16V511.859C1646.24 472.352 1656.61 441.981 1677.36 420.746C1698.1 399.511 1728.72 388.893 1769.21 388.893H1774.4C1851.93 388.893 1890.7 429.882 1890.7 511.859V528.897H1808.47V511.118C1808.47 495.809 1805.26 483.957 1798.84 475.562C1792.91 467.167 1783.78 462.969 1771.43 462.969H1768.47C1756.12 462.969 1746.74 467.414 1740.32 476.303C1733.9 484.698 1730.69 496.303 1730.69 511.118V688.901C1730.69 703.716 1733.9 715.568 1740.32 724.457C1746.74 732.853 1756.12 737.05 1768.47 737.05H1771.43C1783.78 737.05 1792.91 732.853 1798.84 724.457C1805.26 715.568 1808.47 703.716 1808.47 688.901V671.863H1890.7V688.16C1890.7 770.137 1851.93 811.126 1774.4 811.126H1769.21Z" fill="white"/>
<path d="M2040.48 811.126C1958.51 811.126 1917.52 770.137 1917.52 688.16V511.859C1917.52 429.882 1958.26 388.893 2039.74 388.893H2045.67C2127.15 388.893 2167.9 429.882 2167.9 511.859V688.16C2167.9 770.137 2126.91 811.126 2044.93 811.126H2040.48ZM2001.97 688.901C2001.97 703.716 2005.42 715.568 2012.34 724.457C2019.25 732.853 2028.88 737.05 2041.23 737.05H2044.19C2056.53 737.05 2066.16 732.853 2073.08 724.457C2079.99 715.568 2083.45 703.716 2083.45 688.901V511.118C2083.45 496.303 2079.99 484.698 2073.08 476.303C2066.16 467.414 2056.53 462.969 2044.19 462.969H2041.23C2028.88 462.969 2019.25 467.414 2012.34 476.303C2005.42 484.698 2001.97 496.303 2001.97 511.118V688.901Z" fill="white"/>
<path d="M2198.99 396.301H2280.47V431.116C2288.38 418.77 2298.75 408.647 2311.59 400.745C2324.92 392.844 2339.24 388.893 2354.55 388.893H2358.25C2394.3 388.893 2419.49 404.943 2433.81 437.042C2441.22 423.709 2452.08 412.35 2466.4 402.967C2481.22 393.584 2497.76 388.893 2516.04 388.893H2519.74C2547.39 388.893 2568.63 398.276 2583.44 417.042C2598.75 435.808 2606.41 463.71 2606.41 500.748V803.719H2521.96V511.118C2521.96 496.303 2518.75 484.698 2512.33 476.303C2506.41 467.414 2497.27 462.969 2484.92 462.969H2481.96C2469.61 462.969 2460.23 467.414 2453.81 476.303C2447.89 484.698 2444.92 496.303 2444.92 511.118V803.719H2360.48V511.118C2360.48 496.303 2357.27 484.698 2350.85 476.303C2344.92 467.414 2335.78 462.969 2323.44 462.969H2320.47C2308.13 462.969 2298.75 467.414 2292.33 476.303C2286.4 484.698 2283.44 496.303 2283.44 511.118V803.719H2198.99V396.301Z" fill="white"/>
</svg>
