<svg width="624" height="704" viewBox="0 0 624 704" fill="none" xmlns="http://www.w3.org/2000/svg">
<path fill-rule="evenodd" clip-rule="evenodd" d="M72.3989 360H70.2617C52.1085 333.582 40 290.104 40 251.667C40 110.626 138.44 0 305.875 0C473.31 0 581.875 114.668 583.916 260.783C584.875 307.052 577.598 355.126 563.831 395.486C600.708 427.747 624 475.153 624 528C624 625.202 545.202 704 448 704C350.798 704 272 625.202 272 528C272 433.704 346.156 356.729 439.332 352.21C451.938 326.783 459.083 296.268 459.083 264.864C459.083 152.237 376.891 71.0554 260.202 71.0554C143.512 71.0554 61.3205 161.352 61.3205 273.999C61.3205 302.322 64.3331 333.659 72.3989 360ZM0 528C0 625.202 78.7979 704 176 704V352C78.7979 352 0 430.798 0 528Z" fill="black"/>
</svg>
