<svg width="645" height="207" viewBox="0 0 645 207" fill="none" xmlns="http://www.w3.org/2000/svg">
<path d="M28.6417 175.141C19.9172 175.141 12.9212 172.342 7.65354 166.746C2.55053 160.984 -0.000976562 152.506 -0.000976562 141.313V122.547C-0.000976562 111.847 2.87976 103.781 8.64122 98.3487C14.4027 92.9164 21.728 90.2003 30.6171 90.2003H31.6048C36.3786 90.2003 40.6585 91.1057 44.4446 92.9164C48.3953 94.7272 51.2761 97.1964 53.0868 100.324V74.1505C53.0868 64.2737 49.3007 59.3353 41.7285 59.3353H40.7408C36.9547 59.3353 34.074 60.6522 32.0986 63.286C30.2879 65.9199 29.3825 69.5414 29.3825 74.1505V80.0766H1.48054V69.9529C1.48054 59.7468 4.77281 51.5162 11.3573 45.2609C18.1065 38.841 27.6541 35.631 40.0001 35.631H42.4693C55.8029 35.631 65.5974 38.6763 71.8527 44.767C78.108 50.6931 81.2357 59.6645 81.2357 71.6813V173.906H54.5683V161.56C48.4776 170.614 40.3293 175.141 30.1233 175.141H28.6417ZM27.1602 138.103C27.1602 142.547 28.2302 146.169 30.3702 148.967C32.5102 151.601 35.5555 152.918 39.5062 152.918H40.7408C44.6915 152.918 47.7369 151.601 49.8769 148.967C52.0168 146.169 53.0868 142.547 53.0868 138.103V125.757C53.0868 121.312 52.0168 117.773 49.8769 115.139C47.7369 112.341 44.6915 110.942 40.7408 110.942H39.5062C35.3909 110.942 32.2632 112.258 30.1233 114.892C28.1479 117.526 27.1602 121.148 27.1602 125.757V138.103Z" fill="black"/>
<path d="M131.654 176.375C117.826 176.375 107.62 172.919 101.036 166.005C94.4511 159.091 91.1588 148.638 91.1588 134.646V38.1002H119.308V135.634C119.308 140.572 120.378 144.523 122.518 147.486C124.658 150.284 127.785 151.683 131.901 151.683H133.382C137.497 151.683 140.625 150.284 142.765 147.486C144.905 144.523 145.975 140.572 145.975 135.634V38.1002H174.124V134.646C174.124 148.638 170.832 159.091 164.247 166.005C157.663 172.919 147.457 176.375 133.629 176.375H131.654Z" fill="black"/>
<path d="M214.613 176.375C205.23 176.375 197.658 173.33 191.896 167.239C186.3 160.984 183.501 151.683 183.501 139.337V72.669C183.501 60.323 186.3 51.1047 191.896 45.014C197.658 38.7587 205.23 35.631 214.613 35.631H215.848C220.951 35.631 225.478 36.9479 229.428 39.5817C233.379 42.0509 236.342 45.3432 238.317 49.4585V6.0006H266.466V173.906H238.811V163.536C236.177 167.486 232.885 170.614 228.934 172.919C225.148 175.223 220.786 176.375 215.848 176.375H214.613ZM211.65 135.634C211.65 140.572 212.72 144.523 214.86 147.486C217 150.284 220.128 151.683 224.243 151.683H225.477C229.593 151.683 232.72 150.284 234.86 147.486C237 144.523 238.07 140.572 238.07 135.634V76.3728C238.07 71.4344 237 67.566 234.86 64.7676C232.72 61.8045 229.593 60.323 225.477 60.323H224.243C220.128 60.323 217 61.8045 214.86 64.7676C212.72 67.566 211.65 71.4344 211.65 76.3728V135.634Z" fill="black"/>
<path d="M304.98 175.141C296.255 175.141 289.259 172.342 283.992 166.746C278.889 160.984 276.337 152.506 276.337 141.313V122.547C276.337 111.847 279.218 103.781 284.979 98.3487C290.741 92.9164 298.066 90.2003 306.955 90.2003H307.943C312.717 90.2003 316.997 91.1057 320.783 92.9164C324.734 94.7272 327.614 97.1964 329.425 100.324V74.1505C329.425 64.2737 325.639 59.3353 318.067 59.3353H317.079C313.293 59.3353 310.412 60.6522 308.437 63.286C306.626 65.9199 305.721 69.5414 305.721 74.1505V80.0766H277.819V69.9529C277.819 59.7468 281.111 51.5162 287.696 45.2609C294.445 38.841 303.992 35.631 316.338 35.631H318.807C332.141 35.631 341.936 38.6763 348.191 44.767C354.446 50.6931 357.574 59.6645 357.574 71.6813V173.906H330.907V161.56C324.816 170.614 316.667 175.141 306.461 175.141H304.98ZM303.498 138.103C303.498 142.547 304.568 146.169 306.708 148.967C308.848 151.601 311.894 152.918 315.844 152.918H317.079C321.03 152.918 324.075 151.601 326.215 148.967C328.355 146.169 329.425 142.547 329.425 138.103V125.757C329.425 121.312 328.355 117.773 326.215 115.139C324.075 112.341 321.03 110.942 317.079 110.942H315.844C311.729 110.942 308.601 112.258 306.461 114.892C304.486 117.526 303.498 121.148 303.498 125.757V138.103Z" fill="black"/>
<path d="M407.992 176.375C394.494 176.375 384.288 172.836 377.374 165.758C370.46 158.679 367.003 148.556 367.003 135.387V76.6197C367.003 63.4507 370.46 53.3269 377.374 46.2486C384.288 39.1702 394.494 35.631 407.992 35.631H409.72C435.565 35.631 448.487 49.2939 448.487 76.6197V82.2989H421.079V76.3728C421.079 71.2698 420.009 67.3191 417.869 64.5206C415.893 61.7222 412.848 60.323 408.733 60.323H407.745C403.63 60.323 400.502 61.8045 398.362 64.7676C396.222 67.566 395.152 71.4344 395.152 76.3728V135.634C395.152 140.572 396.222 144.523 398.362 147.486C400.502 150.284 403.63 151.683 407.745 151.683H408.733C412.848 151.683 415.893 150.284 417.869 147.486C420.009 144.523 421.079 140.572 421.079 135.634V129.954H448.487V135.387C448.487 162.712 435.565 176.375 409.72 176.375H407.992Z" fill="black"/>
<path d="M458.909 38.1002H487.058V173.906H458.909V38.1002ZM456.687 16.8651C456.687 12.0913 458.169 8.22288 461.132 5.25984C464.259 2.13219 468.21 0.568359 472.984 0.568359C477.758 0.568359 481.626 2.13219 484.589 5.25984C487.717 8.22288 489.281 12.0913 489.281 16.8651C489.281 21.6389 487.717 25.5896 484.589 28.7172C481.626 31.6803 477.758 33.1618 472.984 33.1618C468.21 33.1618 464.259 31.6803 461.132 28.7172C458.169 25.5896 456.687 21.6389 456.687 16.8651Z" fill="black"/>
<path d="M542.149 173.906C530.132 173.906 521.325 171.272 515.728 166.005C510.296 160.573 507.58 151.354 507.58 138.35V61.8045H495.234V38.1002H507.58V13.902H535.729V38.1002H554.248V61.8045H535.729V136.621C535.729 141.395 536.552 144.77 538.198 146.745C539.844 148.556 542.725 149.461 546.84 149.461H554.248V173.906H542.149Z" fill="black"/>
<path d="M602.362 206.5C590.181 206.5 580.798 204.113 574.213 199.339C567.794 194.565 564.172 187.981 563.349 179.585L563.102 176.869H590.016L590.263 178.351C591.251 184.277 595.284 187.24 602.362 187.24H603.103C611.663 187.24 615.943 181.972 615.943 171.437V157.856C611.169 165.099 604.091 168.721 594.708 168.721H593.226C583.185 168.721 575.366 165.84 569.769 160.079C564.172 154.317 561.374 145.675 561.374 134.152V38.1002H589.522V131.436C589.522 136.374 590.592 140.243 592.732 143.041C595.037 145.84 598.165 147.239 602.115 147.239H603.35C607.301 147.239 610.346 145.84 612.486 143.041C614.791 140.243 615.943 136.374 615.943 131.436V38.1002H644.092V166.005C644.092 179.503 640.553 189.627 633.474 196.376C626.56 203.125 616.684 206.5 603.844 206.5H602.362Z" fill="black"/>
</svg>
