<svg width="123" height="60" viewBox="0 0 123 60" fill="none" xmlns="http://www.w3.org/2000/svg">
<path d="M0 50.372V9.63016H8.14836V13.1117C9.62988 10.8154 12.2966 8.8894 15.556 8.8894H15.9263C19.482 8.8894 22.0746 10.5191 23.4821 13.7043C24.8155 11.2598 27.7785 8.8894 31.7045 8.8894H32.0749C37.4825 8.8894 40.7418 12.5932 40.7418 20.0749V50.372H32.2971V21.1119C32.2971 18.223 31.1119 16.297 28.5933 16.297H28.297C25.7784 16.297 24.5932 18.223 24.5932 21.1119V50.372H16.1486V21.1119C16.1486 18.223 14.9634 16.297 12.4448 16.297H12.1485C9.62988 16.297 8.44466 18.223 8.44466 21.1119V50.372H0Z" fill="#F2F2EF"/>
<path d="M55.8383 51.1127C47.4677 51.1127 43.6898 46.9645 43.6898 38.5939V9.63016H52.1345V38.8902C52.1345 41.7791 53.3937 43.7051 55.9123 43.7051H56.3568C58.8754 43.7051 60.1347 41.7791 60.1347 38.8902V9.63016H68.5793V38.5939C68.5793 46.9645 64.8014 51.1127 56.4309 51.1127H55.8383Z" fill="#F2F2EF"/>
<path d="M83.3187 51.1127C76.2815 51.1127 71.0962 47.0385 71.0962 40.3717V37.1124H79.3186V39.5569C79.3186 42.3718 81.0964 44.0014 83.3928 44.0014H83.8372C86.1336 44.0014 87.7633 42.594 87.7633 40.2976V39.9272C87.7633 38.0013 87.0225 36.6679 84.5039 35.1864L77.9852 31.3344C73.7629 28.8158 71.3925 25.4824 71.3925 20.2971V19.7786C71.3925 12.8895 76.1333 8.8894 83.0224 8.8894H83.6891C90.8745 8.8894 95.7635 12.5191 95.7635 19.4823V22.2231H87.541V20.149C87.541 17.4822 85.9114 16.0007 83.6891 16.0007H83.3928C81.1705 16.0007 79.6149 17.3341 79.6149 19.4823V19.8526C79.6149 21.7786 80.8001 23.0379 82.652 24.1491L88.8744 27.8529C93.9857 30.89 95.9857 33.7789 95.9857 39.4087V40.0754C95.9857 46.8904 91.0226 51.1127 83.9854 51.1127H83.3187Z" fill="#F2F2EF"/>
<path d="M110.376 51.1127C101.857 51.1127 98.3752 46.5941 98.3752 38.8161V21.186C98.3752 13.408 102.153 8.8894 110.672 8.8894H111.19C119.339 8.8894 122.82 13.408 122.82 21.186V31.853H106.82V39.0383C106.82 41.9273 108.079 43.7051 110.598 43.7051H110.894C113.413 43.7051 114.598 41.7791 114.598 38.8902V37.5568H122.82V38.8161C122.82 46.2978 119.339 51.1127 111.19 51.1127H110.376ZM106.82 25.8528H114.598V21.1119C114.598 18.223 113.413 16.297 110.894 16.297H110.598C108.079 16.297 106.82 18.223 106.82 21.1119V25.8528Z" fill="#F2F2EF"/>
</svg>
