<svg width="656" height="240" viewBox="0 0 656 240" fill="none" xmlns="http://www.w3.org/2000/svg">
<path d="M242.292 19.2601H258.589V26.2233C260.169 23.7541 262.243 21.7293 264.811 20.149C267.478 18.5688 270.342 17.7786 273.404 17.7786H274.145C281.355 17.7786 286.392 20.9886 289.256 27.4085C290.738 24.7417 292.911 22.4701 295.775 20.5935C298.738 18.7169 302.047 17.7786 305.701 17.7786H306.442C311.973 17.7786 316.22 19.6552 319.183 23.4084C322.245 27.1616 323.776 32.742 323.776 40.1496V100.744H306.886V42.2237C306.886 39.2606 306.244 36.9396 304.96 35.2605C303.775 33.4827 301.948 32.5938 299.479 32.5938H298.886C296.417 32.5938 294.54 33.4827 293.256 35.2605C292.071 36.9396 291.478 39.2606 291.478 42.2237V100.744H274.589V42.2237C274.589 39.2606 273.947 36.9396 272.663 35.2605C271.478 33.4827 269.651 32.5938 267.182 32.5938H266.589C264.12 32.5938 262.243 33.4827 260.959 35.2605C259.774 36.9396 259.181 39.2606 259.181 42.2237V100.744H242.292V19.2601Z" fill="white"/>
<path d="M353.969 102.225C345.672 102.225 339.548 100.151 335.598 96.0029C331.647 91.8546 329.672 85.5828 329.672 77.1876V19.2601H346.561V77.7802C346.561 80.7432 347.203 83.1136 348.487 84.8915C349.771 86.5705 351.647 87.41 354.117 87.41H355.006C357.475 87.41 359.351 86.5705 360.635 84.8915C361.919 83.1136 362.561 80.7432 362.561 77.7802V19.2601H379.451V77.1876C379.451 85.5828 377.475 91.8546 373.525 96.0029C369.574 100.151 363.45 102.225 355.154 102.225H353.969Z" fill="white"/>
<path d="M408.929 102.225C401.719 102.225 395.843 100.299 391.299 96.4473C386.756 92.4966 384.484 87.2619 384.484 80.7432V74.2245H400.929V79.1135C400.929 81.879 401.67 84.0519 403.152 85.6322C404.732 87.2125 406.707 88.0027 409.078 88.0027H409.966C412.337 88.0027 414.214 87.3607 415.596 86.0767C417.078 84.6939 417.819 82.8667 417.819 80.5951V79.8543C417.819 77.8789 417.325 76.1999 416.337 74.8171C415.448 73.3356 413.769 71.8541 411.3 70.3726L398.262 62.6687C393.917 60.1007 390.608 57.0389 388.336 53.4832C386.163 49.9276 385.077 45.6312 385.077 40.594V39.5569C385.077 32.742 387.2 27.4085 391.447 23.5565C395.695 19.7046 401.324 17.7786 408.337 17.7786H409.67C417.078 17.7786 422.954 19.6058 427.3 23.2602C431.646 26.9146 433.819 32.1493 433.819 38.9643V44.446H417.374V40.2977C417.374 37.7297 416.633 35.705 415.152 34.2235C413.769 32.742 411.942 32.0012 409.67 32.0012H409.078C406.806 32.0012 404.979 32.6432 403.596 33.9272C402.213 35.1124 401.522 36.7914 401.522 38.9643V39.7051C401.522 41.4829 402.016 43.0632 403.003 44.446C404.09 45.8287 405.621 47.1127 407.596 48.2979L420.041 55.7055C425.276 58.7673 428.93 62.0267 431.004 65.4836C433.177 68.8417 434.263 73.2862 434.263 78.8172V80.1506C434.263 86.8668 432.041 92.2497 427.597 96.2992C423.152 100.25 417.374 102.225 410.263 102.225H408.929Z" fill="white"/>
<path d="M463.043 102.225C454.747 102.225 448.672 100.151 444.82 96.0029C440.968 91.7558 439.042 85.6322 439.042 77.632V42.3718C439.042 25.9764 447.24 17.7786 463.636 17.7786H464.673C480.179 17.7786 487.933 25.9764 487.933 42.3718V63.7057H455.932V78.0765C455.932 81.0395 456.574 83.3606 457.858 85.0396C459.142 86.6199 461.018 87.41 463.488 87.41H464.08C466.549 87.41 468.377 86.5705 469.562 84.8915C470.846 83.1136 471.488 80.7432 471.488 77.7802V75.1134H487.933V77.632C487.933 85.4347 486.007 91.5089 482.155 95.8547C478.402 100.102 472.574 102.225 464.673 102.225H463.043ZM471.488 51.7054V42.2237C471.488 39.2606 470.846 36.9396 469.562 35.2605C468.377 33.4827 466.549 32.5938 464.08 32.5938H463.488C461.018 32.5938 459.142 33.4827 457.858 35.2605C456.574 36.9396 455.932 39.2606 455.932 42.2237V51.7054H471.488Z" fill="white"/>
<path d="M493.89 0.000366211H510.187V26.0751C511.767 23.6059 513.841 21.6306 516.409 20.149C518.977 18.5688 521.94 17.7786 525.298 17.7786H526.335C532.163 17.7786 536.607 19.6552 539.669 23.4084C542.731 27.1616 544.262 32.742 544.262 40.1496V100.744H527.372V42.2237C527.372 39.2606 526.681 36.9396 525.298 35.2605C523.915 33.4827 521.989 32.5938 519.52 32.5938H518.631C516.162 32.5938 514.236 33.4827 512.853 35.2605C511.471 36.9396 510.779 39.2606 510.779 42.2237V100.744H493.89V0.000366211Z" fill="white"/>
<path d="M574.46 102.225C566.164 102.225 560.04 100.151 556.09 96.0029C552.139 91.8546 550.163 85.5828 550.163 77.1876V19.2601H567.053V77.7802C567.053 80.7432 567.695 83.1136 568.979 84.8915C570.263 86.5705 572.139 87.41 574.609 87.41H575.497C577.967 87.41 579.843 86.5705 581.127 84.8915C582.411 83.1136 583.053 80.7432 583.053 77.7802V19.2601H599.943V77.1876C599.943 85.5828 597.967 91.8546 594.016 96.0029C590.066 100.151 583.942 102.225 575.646 102.225H574.46Z" fill="white"/>
<path d="M636.681 102.225C633.718 102.225 631.051 101.534 628.681 100.151C626.31 98.7684 624.335 96.8918 622.754 94.5213V100.744H606.161V0.000366211H623.051V25.927C624.532 23.4578 626.557 21.4824 629.125 20.0009C631.792 18.5194 634.656 17.7786 637.718 17.7786H638.755C644.187 17.7786 648.385 19.6552 651.348 23.4084C654.41 27.1616 655.941 32.6926 655.941 40.0014V80.0025C655.941 87.4101 654.261 92.9904 650.903 96.7436C647.545 100.398 643.051 102.225 637.421 102.225H636.681ZM623.199 77.7802C623.199 80.7432 623.841 83.1136 625.125 84.8915C626.409 86.5705 628.285 87.41 630.755 87.41H631.495C633.965 87.41 635.841 86.5705 637.125 84.8915C638.409 83.1136 639.051 80.7432 639.051 77.7802V42.2237C639.051 39.2606 638.409 36.9396 637.125 35.2605C635.841 33.4827 633.965 32.5938 631.495 32.5938H630.755C628.285 32.5938 626.409 33.4827 625.125 35.2605C623.841 36.9396 623.199 39.2606 623.199 42.2237V77.7802Z" fill="white"/>
<path fill-rule="evenodd" clip-rule="evenodd" d="M163.103 19.26H182.291V220.74H163.103V19.26ZM0 19.26H57.5657V220.74H0V19.26ZM110.334 165.573C136.497 165.573 157.706 144.364 157.706 118.201C157.706 92.0384 136.497 70.8293 110.334 70.8293C84.1716 70.8293 62.9625 92.0384 62.9625 118.201C62.9625 144.364 84.1716 165.573 110.334 165.573Z" fill="white"/>
</svg>
