<svg width="769" height="240" viewBox="0 0 769 240" fill="none" xmlns="http://www.w3.org/2000/svg">
<path d="M247.092 19.2602H263.389V26.2233C264.969 23.7542 267.043 21.7294 269.611 20.1491C272.278 18.5688 275.142 17.7787 278.204 17.7787H278.944C286.155 17.7787 291.192 20.9886 294.056 27.4086C295.538 24.7418 297.71 22.4702 300.575 20.5936C303.538 18.717 306.846 17.7787 310.501 17.7787H311.242C316.773 17.7787 321.02 19.6553 323.983 23.4085C327.044 27.1616 328.575 32.742 328.575 40.1496V100.744H311.686V42.2238C311.686 39.2607 311.044 36.9397 309.76 35.2606C308.575 33.4828 306.748 32.5939 304.278 32.5939H303.686C301.217 32.5939 299.34 33.4828 298.056 35.2606C296.871 36.9397 296.278 39.2607 296.278 42.2238V100.744H279.389V42.2238C279.389 39.2607 278.747 36.9397 277.463 35.2606C276.278 33.4828 274.451 32.5939 271.981 32.5939H271.389C268.92 32.5939 267.043 33.4828 265.759 35.2606C264.574 36.9397 263.981 39.2607 263.981 42.2238V100.744H247.092V19.2602Z" fill="#F2F2EF"/>
<path d="M358.768 102.225C350.472 102.225 344.348 100.151 340.397 96.0029C336.447 91.8547 334.471 85.5829 334.471 77.1876V19.2602H351.361V77.7802C351.361 80.7433 352.003 83.1137 353.287 84.8915C354.571 86.5706 356.447 87.4101 358.916 87.4101H359.805C362.275 87.4101 364.151 86.5706 365.435 84.8915C366.719 83.1137 367.361 80.7433 367.361 77.7802V19.2602H384.25V77.1876C384.25 85.5829 382.275 91.8547 378.324 96.0029C374.374 100.151 368.25 102.225 359.954 102.225H358.768Z" fill="#F2F2EF"/>
<path d="M413.729 102.225C406.519 102.225 400.642 100.299 396.099 96.4474C391.556 92.4967 389.284 87.262 389.284 80.7433V74.2246H405.729V79.1136C405.729 81.8791 406.47 84.052 407.951 85.6323C409.532 87.2126 411.507 88.0027 413.877 88.0027H414.766C417.137 88.0027 419.013 87.3607 420.396 86.0768C421.878 84.694 422.618 82.8668 422.618 80.5951V79.8544C422.618 77.879 422.125 76.2 421.137 74.8172C420.248 73.3357 418.569 71.8542 416.1 70.3726L403.062 62.6687C398.716 60.1008 395.408 57.039 393.136 53.4833C390.963 49.9277 389.877 45.6313 389.877 40.5941V39.557C389.877 32.742 392 27.4086 396.247 23.5566C400.494 19.7047 406.124 17.7787 413.137 17.7787H414.47C421.878 17.7787 427.754 19.6059 432.1 23.2603C436.446 26.9147 438.619 32.1494 438.619 38.9644V44.446H422.174V40.2978C422.174 37.7298 421.433 35.7051 419.952 34.2236C418.569 32.742 416.742 32.0013 414.47 32.0013H413.877C411.606 32.0013 409.779 32.6433 408.396 33.9273C407.013 35.1125 406.322 36.7915 406.322 38.9644V39.7052C406.322 41.483 406.815 43.0633 407.803 44.446C408.89 45.8288 410.421 47.1128 412.396 48.298L424.841 55.7056C430.075 58.7674 433.73 62.0268 435.804 65.4836C437.977 68.8417 439.063 73.2863 439.063 78.8173V80.1507C439.063 86.8669 436.841 92.2498 432.396 96.2992C427.952 100.25 422.174 102.225 415.063 102.225H413.729Z" fill="#F2F2EF"/>
<path d="M467.843 102.225C459.546 102.225 453.472 100.151 449.62 96.0029C445.768 91.7559 443.842 85.6323 443.842 77.6321V42.3719C443.842 25.9764 452.04 17.7787 468.436 17.7787H469.473C484.979 17.7787 492.732 25.9764 492.732 42.3719V63.7058H460.732V78.0766C460.732 81.0396 461.374 83.3606 462.658 85.0397C463.942 86.62 465.818 87.4101 468.287 87.4101H468.88C471.349 87.4101 473.176 86.5706 474.362 84.8915C475.646 83.1137 476.288 80.7433 476.288 77.7802V75.1135H492.732V77.6321C492.732 85.4348 490.806 91.509 486.955 95.8548C483.201 100.102 477.374 102.225 469.473 102.225H467.843ZM476.288 51.7055V42.2238C476.288 39.2607 475.646 36.9397 474.362 35.2606C473.176 33.4828 471.349 32.5939 468.88 32.5939H468.287C465.818 32.5939 463.942 33.4828 462.658 35.2606C461.374 36.9397 460.732 39.2607 460.732 42.2238V51.7055H476.288Z" fill="#F2F2EF"/>
<path d="M537.61 120.3C530.301 120.3 524.721 118.868 520.869 116.003C517.017 113.139 514.844 109.188 514.35 104.151L514.202 102.522H530.35L530.498 103.114C530.992 104.991 531.733 106.374 532.721 107.262C533.807 108.25 535.437 108.744 537.61 108.744H538.054C540.721 108.744 542.647 107.954 543.832 106.374C545.017 104.892 545.61 102.522 545.61 99.2623V90.3732C542.647 95.4103 538.104 97.9289 531.98 97.9289H531.091C525.066 97.9289 520.424 96.2005 517.165 92.7436C513.905 89.2867 512.276 84.1014 512.276 77.1876V40.0015C512.276 25.1863 518.548 17.7787 531.091 17.7787H531.98C538.005 17.7787 542.548 20.2973 545.61 25.3344V19.2602H561.907V96.0029C561.907 104.102 559.882 110.176 555.832 114.226C551.882 118.275 546.104 120.3 538.499 120.3H537.61ZM529.165 75.4098C529.165 78.3729 529.856 80.7433 531.239 82.5211C532.622 84.2002 534.548 85.0397 537.017 85.0397H537.758C540.227 85.0397 542.153 84.2002 543.536 82.5211C544.919 80.7433 545.61 78.3729 545.61 75.4098V42.2238C545.61 39.2607 544.919 36.9397 543.536 35.2606C542.153 33.4828 540.227 32.5939 537.758 32.5939H537.017C534.548 32.5939 532.622 33.4828 531.239 35.2606C529.856 36.9397 529.165 39.2607 529.165 42.2238V75.4098Z" fill="#F2F2EF"/>
<path d="M568.425 19.2602H584.722V29.779C586.006 26.816 587.883 24.3468 590.352 22.3714C592.821 20.2973 595.982 19.2602 599.834 19.2602H603.093V35.2606H597.315C593.167 35.2606 590.105 36.1495 588.13 37.9274C586.253 39.6064 585.315 42.4213 585.315 46.372V100.744H568.425V19.2602Z" fill="#F2F2EF"/>
<path d="M631.2 102.225C614.805 102.225 606.607 94.0276 606.607 77.6321V42.3719C606.607 25.9764 614.755 17.7787 631.052 17.7787H632.237C648.534 17.7787 656.682 25.9764 656.682 42.3719V77.6321C656.682 94.0276 648.485 102.225 632.089 102.225H631.2ZM623.496 77.7802C623.496 80.7433 624.188 83.1137 625.57 84.8915C626.953 86.5706 628.879 87.4101 631.348 87.4101H631.941C634.41 87.4101 636.336 86.5706 637.719 84.8915C639.102 83.1137 639.793 80.7433 639.793 77.7802V42.2238C639.793 39.2607 639.102 36.9397 637.719 35.2606C636.336 33.4828 634.41 32.5939 631.941 32.5939H631.348C628.879 32.5939 626.953 33.4828 625.57 35.2606C624.188 36.9397 623.496 39.2607 623.496 42.2238V77.7802Z" fill="#F2F2EF"/>
<path d="M686.902 102.225C678.605 102.225 672.482 100.151 668.531 96.0029C664.58 91.8547 662.605 85.5829 662.605 77.1876V19.2602H679.494V77.7802C679.494 80.7433 680.136 83.1137 681.42 84.8915C682.704 86.5706 684.581 87.4101 687.05 87.4101H687.939C690.408 87.4101 692.285 86.5706 693.569 84.8915C694.853 83.1137 695.495 80.7433 695.495 77.7802V19.2602H712.384V77.1876C712.384 85.5829 710.409 91.8547 706.458 96.0029C702.507 100.151 696.384 102.225 688.087 102.225H686.902Z" fill="#F2F2EF"/>
<path d="M718.603 19.2602H734.9V26.0752C736.48 23.606 738.603 21.6306 741.27 20.1491C743.937 18.5688 746.801 17.7787 749.863 17.7787H750.9C756.332 17.7787 760.579 19.7047 763.641 23.5566C766.802 27.3098 768.382 32.7914 768.382 40.0015V80.0025C768.382 87.4101 766.703 92.9905 763.345 96.7437C759.987 100.398 755.493 102.225 749.863 102.225H748.974C742.85 102.225 738.357 99.9537 735.492 95.4103V120.004H718.603V19.2602ZM735.492 77.7802C735.492 80.7433 736.134 83.1137 737.418 84.8915C738.702 86.5706 740.579 87.4101 743.048 87.4101H743.937C746.406 87.4101 748.283 86.5706 749.567 84.8915C750.851 83.1137 751.493 80.7433 751.493 77.7802V42.2238C751.493 39.2607 750.851 36.9397 749.567 35.2606C748.283 33.4828 746.406 32.5939 743.937 32.5939H743.048C740.579 32.5939 738.702 33.4828 737.418 35.2606C736.134 36.9397 735.492 39.2607 735.492 42.2238V77.7802Z" fill="#F2F2EF"/>
<path fill-rule="evenodd" clip-rule="evenodd" d="M134.322 19.5607C146.005 26.4524 155.61 39.9603 155.61 55.5398C155.61 76.2148 140.904 92.4183 121.13 92.4183C117.528 92.4183 114.421 91.3517 113.972 91.1905C127.97 90.5442 139.119 78.9914 139.119 64.8344C139.119 50.2626 127.307 38.4498 112.735 38.4498C98.1628 38.4498 86.35 50.2626 86.35 64.8344C86.35 64.9244 86.3505 65.0143 86.3514 65.1041H86.35C86.35 76.1905 92.9533 85.8265 101.641 90.3195C109.732 94.8126 118.44 96.6159 128.625 96.6159C162.481 96.6159 187.091 74.7042 187.091 43.2469C187.091 34.2608 184.392 24.0524 181.695 19.2609H134.322V19.5607ZM62.3637 19.261H0L101.041 225.541H101.641L62.3637 19.261ZM19.1888 86.4219H0V220.744H19.1888V86.4219ZM182.294 110.408H134.321V220.744H182.294V110.408Z" fill="#F2F2EF"/>
</svg>
