<svg width="669" height="554" viewBox="0 0 669 554" fill="none" xmlns="http://www.w3.org/2000/svg">
<path d="M397.905 10.3827L506.574 135.612L428.886 19.7138L397.905 10.3827Z" fill="#3C0191"/>
<path d="M410.148 16.66L517.127 157.31L447.343 29.3842L410.148 16.66Z" fill="#3A0376"/>
<path d="M425.516 24.7546L526.433 180.716L468.585 41.1756L425.516 24.7546Z" fill="#360463"/>
<path d="M443.084 34.6015L533.801 205.741L491.587 55.0055L443.084 34.6015Z" fill="#2F046F"/>
<path d="M461.961 46.1173L538.673 232.222L515.411 70.7667L461.961 46.1173Z" fill="#210280"/>
<path d="M481.309 59.1715L540.605 259.911L539.187 88.3105L481.309 59.1715Z" fill="#150192"/>
<path d="M500.375 73.5925L539.368 288.472L562.162 107.429L500.375 73.5925Z" fill="#0B02A2"/>
<path d="M518.504 89.1561L534.915 317.504L583.678 127.841L518.504 89.1561Z" fill="#0702AE"/>
<path d="M535.13 105.579L527.401 346.55L603.191 149.192L535.13 105.579Z" fill="#1304AA"/>
<path d="M549.817 122.515L517.185 375.112L620.269 171.042L549.817 122.515Z" fill="#2106A6"/>
<path d="M18.27 365.814L100.577 424.395L34.7538 355.109L18.27 365.814Z" fill="#FF7678"/>
<path d="M562.192 139.578L504.791 402.722L634.588 192.876L562.192 139.578Z" fill="#3109A2"/>
<path d="M6.48679 396.401L70.8365 434.841L16.6804 386.7L6.48679 396.401Z" fill="#FF7678"/>
<path d="M572.015 156.35L490.866 428.902L645.936 214.137L572.015 156.35Z" fill="#3B0BA0"/>
<path d="M0.870904 427.823L43.1246 448.729L5.86245 420.648L0.870904 427.823Z" fill="#FF7678"/>
<path d="M579.112 172.391L476.127 453.258L654.195 234.249L579.112 172.391Z" fill="#4B0E9C"/>
<path d="M583.379 187.277L461.292 475.425L659.31 252.638L583.379 187.277Z" fill="#51109A"/>
<path d="M584.768 200.614L447.046 495.111L661.309 268.776L584.768 200.614Z" fill="#5B1298"/>
<path d="M583.266 212.087L433.955 512.071L660.227 282.211L583.266 212.087Z" fill="#611396"/>
<path d="M578.883 221.442L422.454 526.117L656.111 292.613L578.883 221.442Z" fill="#6C1594"/>
<path d="M569.255 235.332L410.432 543.879L649.003 306.637L569.255 235.332Z" fill="#751791"/>
<path d="M120.78 268.571L224.279 417.075L164.08 266.601L120.78 268.571Z" fill="#FF646B"/>
<path d="M156.063 252.695L252.749 423.179L205.018 255.088L156.063 252.695Z" fill="#FF4B69"/>
<path d="M88.3541 288.026L194.153 413.936L125.401 282.362L88.3541 288.026Z" fill="#FF7678"/>
<path d="M193.17 240.33L279.006 431.938L247.151 247.594L193.17 240.33Z" fill="#FF3E75"/>
<path d="M59.8336 310.963L163.011 414.008L90.1531 302.463L59.8336 310.963Z" fill="#FF7678"/>
<path d="M231.185 231.295L302.607 442.949L289.575 243.813L231.185 231.295Z" fill="#F52F79"/>
<path d="M269.272 225.306L323.205 455.732L331.486 243.366L269.272 225.306Z" fill="#E22C74"/>
<path d="M36.2074 337.075L131.569 417.458L59.5519 326.82L36.2074 337.075Z" fill="#FF7678"/>
<path d="M306.728 222.014L340.619 469.732L372.234 245.826L306.728 222.014Z" fill="#D32979"/>
<path d="M342.955 221.019L354.81 484.33L411.257 250.704L342.955 221.019Z" fill="#C4267C"/>
<path d="M377.469 221.863L365.921 498.858L448.115 257.468L377.469 221.863Z" fill="#B42380"/>
<path d="M409.888 224.051L374.269 512.645L482.455 265.526L409.888 224.051Z" fill="#A92183"/>
<path d="M439.899 227.066L380.329 525.037L514.01 274.232L439.899 227.066Z" fill="#9E1F86"/>
<path d="M467.291 230.361L384.701 535.46L542.582 282.923L467.291 230.361Z" fill="#941C88"/>
<path d="M491.903 233.398L388.068 543.423L568.074 290.918L491.903 233.398Z" fill="#8F1C8A"/>
<path d="M513.657 235.653L391.148 548.547L590.435 297.553L513.657 235.653Z" fill="#861A8C"/>
<path d="M532.51 236.653L394.625 550.58L609.668 302.217L532.51 236.653Z" fill="#7F188E"/>
<path d="M548.443 235.996L399.101 549.366L625.811 304.392L548.443 235.996Z" fill="#7B188F"/>
</svg>
