<svg width="232" height="62" viewBox="0 0 232 62" fill="none" xmlns="http://www.w3.org/2000/svg">
<path d="M80.6371 48.38C78.4959 48.38 76.7789 47.7 75.4861 46.3401C74.2336 44.9401 73.6074 42.8801 73.6074 40.1602V35.6002C73.6074 33.0003 74.3144 31.0403 75.7285 29.7203C77.1425 28.4003 78.9403 27.7403 81.122 27.7403H81.3644C82.536 27.7403 83.5864 27.9603 84.5156 28.4003C85.4852 28.8403 86.1922 29.4403 86.6367 30.2003V23.8404C86.6367 21.4404 85.7074 20.2405 83.849 20.2405H83.6066C82.6774 20.2405 81.9704 20.5605 81.4856 21.2005C81.0412 21.8404 80.819 22.7204 80.819 23.8404V25.2804H73.971V22.8204C73.971 20.3405 74.779 18.3405 76.3951 16.8205C78.0515 15.2605 80.3947 14.4806 83.4248 14.4806H84.0308C87.3033 14.4806 89.7071 15.2205 91.2423 16.7005C92.7776 18.1405 93.5452 20.3205 93.5452 23.2404V48.08H87.0003V45.0801C85.5054 47.28 83.5056 48.38 81.0008 48.38H80.6371ZM80.2735 39.3802C80.2735 40.4601 80.5361 41.3401 81.0614 42.0201C81.5866 42.6601 82.334 42.9801 83.3036 42.9801H83.6066C84.5762 42.9801 85.3236 42.6601 85.8488 42.0201C86.3741 41.3401 86.6367 40.4601 86.6367 39.3802V36.3802C86.6367 35.3002 86.3741 34.4402 85.8488 33.8003C85.3236 33.1203 84.5762 32.7803 83.6066 32.7803H83.3036C82.2936 32.7803 81.526 33.1003 81.0008 33.7403C80.5159 34.3802 80.2735 35.2602 80.2735 36.3802V39.3802Z" fill="#76A2FF"/>
<path d="M105.919 48.68C102.526 48.68 100.021 47.84 98.4046 46.1601C96.7886 44.4801 95.9806 41.9401 95.9806 38.5402V15.0806H102.889V38.7802C102.889 39.9802 103.152 40.9401 103.677 41.6601C104.202 42.3401 104.97 42.6801 105.98 42.6801H106.343C107.353 42.6801 108.121 42.3401 108.646 41.6601C109.171 40.9401 109.434 39.9802 109.434 38.7802V15.0806H116.343V38.5402C116.343 41.9401 115.535 44.4801 113.919 46.1601C112.302 47.84 109.798 48.68 106.404 48.68H105.919Z" fill="#76A2FF"/>
<path d="M126.28 48.68C123.977 48.68 122.118 47.94 120.704 46.4601C119.331 44.9401 118.644 42.6801 118.644 39.6802V23.4804C118.644 20.4805 119.331 18.2405 120.704 16.7605C122.118 15.2405 123.977 14.4806 126.28 14.4806H126.583C127.835 14.4806 128.946 14.8006 129.916 15.4405C130.885 16.0405 131.613 16.8405 132.097 17.8405V7.28067H139.006V48.08H132.219V45.5601C131.572 46.5201 130.764 47.28 129.795 47.84C128.865 48.4 127.795 48.68 126.583 48.68H126.28ZM125.553 38.7802C125.553 39.9802 125.815 40.9401 126.34 41.6601C126.866 42.3401 127.633 42.6801 128.643 42.6801H128.946C129.956 42.6801 130.724 42.3401 131.249 41.6601C131.774 40.9401 132.037 39.9802 132.037 38.7802V24.3804C132.037 23.1804 131.774 22.2404 131.249 21.5604C130.724 20.8405 129.956 20.4805 128.946 20.4805H128.643C127.633 20.4805 126.866 20.8405 126.34 21.5604C125.815 22.2404 125.553 23.1804 125.553 24.3804V38.7802Z" fill="#76A2FF"/>
<path d="M148.458 48.38C146.317 48.38 144.6 47.7 143.307 46.3401C142.055 44.9401 141.429 42.8801 141.429 40.1602V35.6002C141.429 33.0003 142.136 31.0403 143.55 29.7203C144.964 28.4003 146.761 27.7403 148.943 27.7403H149.186C150.357 27.7403 151.408 27.9603 152.337 28.4003C153.306 28.8403 154.013 29.4403 154.458 30.2003V23.8404C154.458 21.4404 153.529 20.2405 151.67 20.2405H151.428C150.499 20.2405 149.792 20.5605 149.307 21.2005C148.862 21.8404 148.64 22.7204 148.64 23.8404V25.2804H141.792V22.8204C141.792 20.3405 142.6 18.3405 144.216 16.8205C145.873 15.2605 148.216 14.4806 151.246 14.4806H151.852C155.124 14.4806 157.528 15.2205 159.063 16.7005C160.599 18.1405 161.366 20.3205 161.366 23.2404V48.08H154.821V45.0801C153.327 47.28 151.327 48.38 148.822 48.38H148.458ZM148.095 39.3802C148.095 40.4601 148.357 41.3401 148.882 42.0201C149.408 42.6601 150.155 42.9801 151.125 42.9801H151.428C152.397 42.9801 153.145 42.6601 153.67 42.0201C154.195 41.3401 154.458 40.4601 154.458 39.3802V36.3802C154.458 35.3002 154.195 34.4402 153.67 33.8003C153.145 33.1203 152.397 32.7803 151.428 32.7803H151.125C150.115 32.7803 149.347 33.1003 148.822 33.7403C148.337 34.3802 148.095 35.2602 148.095 36.3802V39.3802Z" fill="#76A2FF"/>
<path d="M173.74 48.68C170.427 48.68 167.923 47.82 166.226 46.1001C164.529 44.3801 163.681 41.9201 163.681 38.7202V24.4404C163.681 21.2405 164.529 18.7805 166.226 17.0605C167.923 15.3405 170.427 14.4806 173.74 14.4806H174.165C180.507 14.4806 183.679 17.8005 183.679 24.4404V25.8204H176.952V24.3804C176.952 23.1404 176.69 22.1804 176.164 21.5004C175.68 20.8205 174.932 20.4805 173.922 20.4805H173.68C172.67 20.4805 171.902 20.8405 171.377 21.5604C170.852 22.2404 170.589 23.1804 170.589 24.3804V38.7802C170.589 39.9802 170.852 40.9401 171.377 41.6601C171.902 42.3401 172.67 42.6801 173.68 42.6801H173.922C174.932 42.6801 175.68 42.3401 176.164 41.6601C176.69 40.9401 176.952 39.9802 176.952 38.7802V37.4002H183.679V38.7202C183.679 45.3601 180.507 48.68 174.165 48.68H173.74Z" fill="#76A2FF"/>
<path d="M186.237 15.0806H193.145V48.08H186.237V15.0806ZM185.692 9.92063C185.692 8.76065 186.055 7.82066 186.782 7.10067C187.55 6.34069 188.52 5.96069 189.691 5.96069C190.863 5.96069 191.812 6.34069 192.539 7.10067C193.307 7.82066 193.691 8.76065 193.691 9.92063C193.691 11.0806 193.307 12.0406 192.539 12.8006C191.812 13.5206 190.863 13.8806 189.691 13.8806C188.52 13.8806 187.55 13.5206 186.782 12.8006C186.055 12.0406 185.692 11.0806 185.692 9.92063Z" fill="#76A2FF"/>
<path d="M206.666 48.08C203.717 48.08 201.555 47.44 200.182 46.1601C198.849 44.8401 198.182 42.6001 198.182 39.4402V20.8405H195.152V15.0806H198.182V9.20064H205.09V15.0806H209.636V20.8405H205.09V39.0202C205.09 40.1802 205.292 41.0001 205.697 41.4801C206.101 41.9201 206.808 42.1401 207.818 42.1401H209.636V48.08H206.666Z" fill="#76A2FF"/>
<path d="M221.444 55.9999C218.455 55.9999 216.152 55.4199 214.536 54.2599C212.96 53.0999 212.071 51.5 211.869 49.46L211.809 48.8H218.414L218.475 49.16C218.717 50.6 219.707 51.32 221.444 51.32H221.626C223.727 51.32 224.777 50.04 224.777 47.48V44.1801C223.606 45.9401 221.868 46.82 219.566 46.82H219.202C216.738 46.82 214.819 46.1201 213.445 44.7201C212.071 43.3201 211.384 41.2201 211.384 38.4202V15.0806H218.293V37.7602C218.293 38.9602 218.556 39.9002 219.081 40.5801C219.646 41.2601 220.414 41.6001 221.384 41.6001H221.687C222.656 41.6001 223.404 41.2601 223.929 40.5801C224.495 39.9002 224.777 38.9602 224.777 37.7602V15.0806H231.686V46.1601C231.686 49.44 230.817 51.9 229.08 53.5399C227.383 55.1799 224.959 55.9999 221.808 55.9999H221.444Z" fill="#76A2FF"/>
<path d="M60 45.9012C60 53.347 53.8836 59.383 46.3386 59.383C38.7935 59.383 32.6771 53.347 32.6771 45.9012C32.6771 38.4554 38.7935 32.4194 46.3386 32.4194C53.8836 32.4194 60 38.4554 60 45.9012Z" fill="#76A2FF"/>
<path d="M30.1457 0C17.7686 0 7.73505 10.228 7.73503 22.8447C7.73504 24.6961 7.95146 27.1337 8.3593 28.8575H9.31942C9.14488 27.7917 9.0533 26.0552 9.0533 24.9322C9.05333 15.0371 16.1359 7.01561 24.8726 7.01554C33.6093 7.01554 40.6918 15.0371 40.6919 24.9322C40.6919 25.8725 40.6278 27.7523 40.5045 28.6535H52.0494C52.3813 27.0897 52.5563 24.5098 52.5563 22.8447C52.5563 10.228 42.5227 1.65568e-05 30.1457 0Z" fill="#76A2FF"/>
<path d="M0 45.9012C0 53.4453 5.98347 59.5609 13.3645 59.5609V32.2414C5.98347 32.2414 0 38.3571 0 45.9012Z" fill="#76A2FF"/>
<path d="M25.672 29.7236L30.6391 45.9012L25.672 62L20.9975 45.9012L25.672 29.7236Z" fill="#76A2FF"/>
<path d="M18.6441 37.2346L21.282 45.9012L18.6441 54.6851L15.4369 45.9012L18.6441 37.2346Z" fill="#76A2FF"/>
</svg>
